<mxfile host="Electron" agent="Mozilla/5.0 (Windows NT 10.0; Win64; x64) AppleWebKit/537.36 (KHTML, like Gecko) draw.io/26.1.1 Chrome/132.0.6834.210 Electron/34.3.3 Safari/537.36" version="26.1.1">
  <diagram name="Page-1" id="13e1069c-82ec-6db2-03f1-153e76fe0fe0">
    <mxGraphModel dx="882" dy="568" grid="1" gridSize="10" guides="1" tooltips="1" connect="1" arrows="1" fold="1" page="1" pageScale="1" pageWidth="1100" pageHeight="850" background="none" math="0" shadow="0">
      <root>
        <mxCell id="0" />
        <mxCell id="1" parent="0" />
        <mxCell id="7baba1c4bc27f4b0-4" value="External Map Servers" style="shape=umlLifeline;perimeter=lifelinePerimeter;whiteSpace=wrap;html=1;container=1;collapsible=0;recursiveResize=0;outlineConnect=0;rounded=1;shadow=0;comic=0;labelBackgroundColor=none;strokeWidth=1;fontFamily=Verdana;fontSize=12;align=center;fillColor=#dae8fc;strokeColor=#6c8ebf;" parent="1" vertex="1">
          <mxGeometry x="540" y="80" width="100" height="380" as="geometry" />
        </mxCell>
        <mxCell id="f6eeiFevcDU4rNr8g4Kw-20" value="&lt;span style=&quot;font-size: 11px;&quot;&gt;Fetch road and weather data&lt;/span&gt;" style="text;html=1;align=center;verticalAlign=middle;whiteSpace=wrap;rounded=0;" vertex="1" parent="7baba1c4bc27f4b0-4">
          <mxGeometry x="-80" y="130" width="120" height="30" as="geometry" />
        </mxCell>
        <UserObject label="" id="7baba1c4bc27f4b0-16">
          <mxCell style="html=1;points=[];perimeter=orthogonalPerimeter;rounded=0;shadow=0;comic=0;labelBackgroundColor=none;strokeWidth=1;fontFamily=Verdana;fontSize=12;align=center;fillColor=#dae8fc;strokeColor=#6c8ebf;" parent="1" vertex="1">
            <mxGeometry x="585" y="240" width="10" height="40" as="geometry" />
          </mxCell>
        </UserObject>
        <mxCell id="7baba1c4bc27f4b0-2" value="Website" style="shape=umlLifeline;perimeter=lifelinePerimeter;whiteSpace=wrap;html=1;container=1;collapsible=0;recursiveResize=0;outlineConnect=0;rounded=1;shadow=0;comic=0;labelBackgroundColor=none;strokeWidth=1;fontFamily=Verdana;fontSize=12;align=center;fillColor=#dae8fc;strokeColor=#6c8ebf;" parent="1" vertex="1">
          <mxGeometry x="240" y="80" width="100" height="380" as="geometry" />
        </mxCell>
        <mxCell id="7baba1c4bc27f4b0-10" value="" style="html=1;points=[[0.5,0,0,0,0],[0.5,1,0,0,0]];perimeter=orthogonalPerimeter;rounded=0;shadow=0;comic=0;labelBackgroundColor=none;strokeWidth=1;fontFamily=Verdana;fontSize=12;align=center;fillColor=#dae8fc;strokeColor=#6c8ebf;" parent="7baba1c4bc27f4b0-2" vertex="1">
          <mxGeometry x="45" y="100" width="10" height="30" as="geometry" />
        </mxCell>
        <mxCell id="f6eeiFevcDU4rNr8g4Kw-13" value="" style="html=1;points=[[0.5,0,0,0,0],[0.5,1,0,0,0]];perimeter=orthogonalPerimeter;rounded=0;shadow=0;comic=0;labelBackgroundColor=none;strokeWidth=1;fontFamily=Verdana;fontSize=12;align=center;fillColor=#dae8fc;strokeColor=#6c8ebf;" vertex="1" parent="7baba1c4bc27f4b0-2">
          <mxGeometry x="45" y="280" width="10" height="80" as="geometry" />
        </mxCell>
        <mxCell id="f6eeiFevcDU4rNr8g4Kw-27" value="" style="endArrow=classic;html=1;rounded=0;" edge="1" parent="7baba1c4bc27f4b0-2">
          <mxGeometry width="50" height="50" relative="1" as="geometry">
            <mxPoint x="55.000909090908976" y="310" as="sourcePoint" />
            <mxPoint x="49" y="330" as="targetPoint" />
            <Array as="points">
              <mxPoint x="100" y="310" />
              <mxPoint x="100" y="330" />
            </Array>
          </mxGeometry>
        </mxCell>
        <mxCell id="7baba1c4bc27f4b0-3" value="Backend Server" style="shape=umlLifeline;perimeter=lifelinePerimeter;whiteSpace=wrap;html=1;container=1;collapsible=0;recursiveResize=0;outlineConnect=0;rounded=1;shadow=0;comic=0;labelBackgroundColor=none;strokeWidth=1;fontFamily=Verdana;fontSize=12;align=center;fillColor=#dae8fc;strokeColor=#6c8ebf;" parent="1" vertex="1">
          <mxGeometry x="400" y="80" width="100" height="380" as="geometry" />
        </mxCell>
        <mxCell id="f6eeiFevcDU4rNr8g4Kw-4" value="" style="html=1;points=[[0.5,0,0,0,0],[0.5,1,0,0,0]];perimeter=orthogonalPerimeter;rounded=0;shadow=0;comic=0;labelBackgroundColor=none;strokeWidth=1;fontFamily=Verdana;fontSize=12;align=center;fillColor=#dae8fc;strokeColor=#6c8ebf;" vertex="1" parent="7baba1c4bc27f4b0-3">
          <mxGeometry x="45" y="130" width="10" height="150" as="geometry" />
        </mxCell>
        <mxCell id="f6eeiFevcDU4rNr8g4Kw-6" value="" style="endArrow=classic;html=1;rounded=0;endFill=1;" edge="1" parent="7baba1c4bc27f4b0-3" target="7baba1c4bc27f4b0-4">
          <mxGeometry width="50" height="50" relative="1" as="geometry">
            <mxPoint x="54.888888888888914" y="160" as="sourcePoint" />
            <mxPoint x="180" y="170" as="targetPoint" />
          </mxGeometry>
        </mxCell>
        <mxCell id="f6eeiFevcDU4rNr8g4Kw-11" value="" style="endArrow=classic;html=1;rounded=0;" edge="1" parent="7baba1c4bc27f4b0-3" target="7baba1c4bc27f4b0-3">
          <mxGeometry width="50" height="50" relative="1" as="geometry">
            <mxPoint x="55.000909090909005" y="230" as="sourcePoint" />
            <mxPoint x="49.388888888888914" y="270" as="targetPoint" />
            <Array as="points">
              <mxPoint x="100" y="230" />
              <mxPoint x="100" y="250" />
            </Array>
          </mxGeometry>
        </mxCell>
        <mxCell id="7baba1c4bc27f4b0-8" value="User" style="shape=umlLifeline;perimeter=lifelinePerimeter;whiteSpace=wrap;html=1;container=1;collapsible=0;recursiveResize=0;outlineConnect=0;rounded=1;shadow=0;comic=0;labelBackgroundColor=none;strokeWidth=1;fontFamily=Verdana;fontSize=12;align=center;fillColor=#dae8fc;strokeColor=#6c8ebf;" parent="1" vertex="1">
          <mxGeometry x="100" y="80" width="100" height="380" as="geometry" />
        </mxCell>
        <mxCell id="7baba1c4bc27f4b0-11" value="&lt;font style=&quot;font-size: 11px;&quot;&gt;Toggle forestry&lt;/font&gt;&lt;div&gt;&lt;font style=&quot;font-size: 11px;&quot;&gt;&amp;nbsp;road layer&lt;/font&gt;&lt;/div&gt;" style="html=1;verticalAlign=bottom;endArrow=block;entryX=0;entryY=0;labelBackgroundColor=none;fontFamily=Verdana;fontSize=12;edgeStyle=elbowEdgeStyle;elbow=horizontal;" parent="7baba1c4bc27f4b0-8" edge="1">
          <mxGeometry relative="1" as="geometry">
            <mxPoint x="49.388888888888914" y="99.99777777777771" as="sourcePoint" />
            <mxPoint x="185" y="100.22" as="targetPoint" />
          </mxGeometry>
        </mxCell>
        <mxCell id="f6eeiFevcDU4rNr8g4Kw-3" value="" style="endArrow=classic;html=1;rounded=0;exitX=0.5;exitY=1;exitDx=0;exitDy=0;exitPerimeter=0;" edge="1" parent="1" source="7baba1c4bc27f4b0-10" target="7baba1c4bc27f4b0-3">
          <mxGeometry width="50" height="50" relative="1" as="geometry">
            <mxPoint x="430" y="330" as="sourcePoint" />
            <mxPoint x="360" y="230" as="targetPoint" />
          </mxGeometry>
        </mxCell>
        <mxCell id="f6eeiFevcDU4rNr8g4Kw-7" value="" style="endArrow=classic;html=1;rounded=0;dashed=1;" edge="1" parent="1" target="7baba1c4bc27f4b0-3">
          <mxGeometry width="50" height="50" relative="1" as="geometry">
            <mxPoint x="585" y="280" as="sourcePoint" />
            <mxPoint x="455.090909090909" y="279.9999999999999" as="targetPoint" />
          </mxGeometry>
        </mxCell>
        <mxCell id="f6eeiFevcDU4rNr8g4Kw-19" value="&lt;font style=&quot;font-size: 11px;&quot;&gt;Request forestry road data&lt;/font&gt;" style="text;html=1;align=center;verticalAlign=middle;whiteSpace=wrap;rounded=0;" vertex="1" parent="1">
          <mxGeometry x="300" y="180" width="140" height="30" as="geometry" />
        </mxCell>
        <mxCell id="f6eeiFevcDU4rNr8g4Kw-24" value="&lt;span style=&quot;font-size: 11px;&quot;&gt;Return road and weather data&lt;/span&gt;" style="text;html=1;align=center;verticalAlign=middle;whiteSpace=wrap;rounded=0;" vertex="1" parent="1">
          <mxGeometry x="460" y="250" width="120" height="30" as="geometry" />
        </mxCell>
        <mxCell id="f6eeiFevcDU4rNr8g4Kw-26" value="&lt;span style=&quot;font-size: 11px;&quot;&gt;Aggregate data&lt;/span&gt;" style="text;html=1;align=center;verticalAlign=middle;whiteSpace=wrap;rounded=0;" vertex="1" parent="1">
          <mxGeometry x="505" y="300" width="80" height="30" as="geometry" />
        </mxCell>
        <mxCell id="f6eeiFevcDU4rNr8g4Kw-12" value="" style="endArrow=classic;html=1;rounded=0;dashed=1;" edge="1" parent="1">
          <mxGeometry width="50" height="50" relative="1" as="geometry">
            <mxPoint x="454.91" y="359.9999999999999" as="sourcePoint" />
            <mxPoint x="295.00090909090903" y="359.9999999999999" as="targetPoint" />
          </mxGeometry>
        </mxCell>
        <mxCell id="f6eeiFevcDU4rNr8g4Kw-15" value="" style="endArrow=classic;html=1;rounded=0;dashed=1;" edge="1" parent="1">
          <mxGeometry width="50" height="50" relative="1" as="geometry">
            <mxPoint x="285.0000000000002" y="440" as="sourcePoint" />
            <mxPoint x="149.3888888888889" y="440" as="targetPoint" />
          </mxGeometry>
        </mxCell>
        <mxCell id="f6eeiFevcDU4rNr8g4Kw-30" value="&lt;span style=&quot;font-size: 11px;&quot;&gt;Return aggregated data&lt;/span&gt;" style="text;html=1;align=center;verticalAlign=middle;whiteSpace=wrap;rounded=0;" vertex="1" parent="1">
          <mxGeometry x="310" y="330" width="120" height="30" as="geometry" />
        </mxCell>
        <mxCell id="f6eeiFevcDU4rNr8g4Kw-32" value="&lt;span style=&quot;font-size: 11px;&quot;&gt;Process forestry data&lt;/span&gt;" style="text;html=1;align=center;verticalAlign=middle;whiteSpace=wrap;rounded=0;" vertex="1" parent="1">
          <mxGeometry x="350" y="380" width="80" height="30" as="geometry" />
        </mxCell>
        <mxCell id="f6eeiFevcDU4rNr8g4Kw-35" value="&lt;span style=&quot;font-size: 11px;&quot;&gt;Display forestry road trafficability&lt;/span&gt;" style="text;html=1;align=center;verticalAlign=middle;whiteSpace=wrap;rounded=0;" vertex="1" parent="1">
          <mxGeometry x="160" y="410" width="120" height="30" as="geometry" />
        </mxCell>
      </root>
    </mxGraphModel>
  </diagram>
</mxfile>
